<svg xmlns="http://www.w3.org/2000/svg" viewBox="0 0 49.97 50"><defs><style>.a{fill:#e2a90a;}</style></defs><title>icons</title><path class="a" d="M36.3,39.61l-26.22,0,0-25.15,14.41,0,4.09-4.08-19.81,0A2.81,2.81,0,0,0,6,13.19L6,40.85a2.83,2.83,0,0,0,2.8,2.85l28.83,0a2.82,2.82,0,0,0,2.8-2.84l0-19.74-4.09,4Z"/><path class="a" d="M43.75,11.07,39.27,6.54a1,1,0,0,0-.68-.28,1.13,1.13,0,0,0-.68.28L21.07,23.3a.84.84,0,0,0-.28.52l-1,5.48a.92.92,0,0,0,.28.84,1.26,1.26,0,0,0,.6.32.51.51,0,0,0,.24,0l5.53-1a.74.74,0,0,0,.48-.28L43.75,12.4a1,1,0,0,0,0-1.33Z"/></svg>