<svg id="Layer_1" data-name="Layer 1" xmlns="http://www.w3.org/2000/svg" xmlns:xlink="http://www.w3.org/1999/xlink" viewBox="0 0 500 500"><defs><style>.cls-1{fill:none;}.cls-2{fill:#f3dd93;}.cls-3{clip-path:url(#clip-path);}.cls-4{fill:#ceb672;}.cls-5{fill:#fff;}.cls-6{fill:#ec9633;}.cls-7{fill:#e2a90a;}.cls-8{fill:#7c1d1d;}</style><clipPath id="clip-path"><path class="cls-1" d="M307.22,33l53.89,56.8a78.87,78.87,0,0,0,23.27,16.91l70.68,33.7a78.87,78.87,0,0,1,35.36,108.83L453,318a78.87,78.87,0,0,0-8.89,27.36L433.95,423a78.87,78.87,0,0,1-92.58,67.26l-77-14.28a78.87,78.87,0,0,0-28.76,0l-77,14.28A78.87,78.87,0,0,1,66.05,423L55.84,345.38A78.87,78.87,0,0,0,47,318L9.58,249.22A78.87,78.87,0,0,1,44.94,140.39l70.68-33.7a78.87,78.87,0,0,0,23.27-16.91L192.78,33A78.87,78.87,0,0,1,307.22,33Z"/></clipPath></defs><title>Artboard 1</title><path class="cls-2" d="M307.22,33l53.89,56.8a78.87,78.87,0,0,0,23.27,16.91l70.68,33.7a78.87,78.87,0,0,1,35.36,108.83L453,318a78.87,78.87,0,0,0-8.89,27.36L433.95,423a78.87,78.87,0,0,1-92.58,67.26l-77-14.28a78.87,78.87,0,0,0-28.76,0l-77,14.28A78.87,78.87,0,0,1,66.05,423L55.84,345.38A78.87,78.87,0,0,0,47,318L9.58,249.22A78.87,78.87,0,0,1,44.94,140.39l70.68-33.7a78.87,78.87,0,0,0,23.27-16.91L192.78,33A78.87,78.87,0,0,1,307.22,33Z"/><g class="cls-3"><polygon class="cls-4" points="354.2 152.39 133.52 374.52 343.49 584.49 564.9 363.09 354.2 152.39"/></g><circle class="cls-5" cx="250" cy="268" r="136.79"/><polygon class="cls-6" points="329.5 268 250 288.49 170.5 268 250 247.09 329.5 268"/><path class="cls-7" d="M250,268H173.75a.42.42,0,0,1-.1-.82l59.93-15.6Z"/><path class="cls-7" d="M250,268h77a.32.32,0,0,1,.08.62l-60.67,15.8Z"/><polyline class="cls-6" points="266.42 251.58 250 188.5 233.58 251.58 250 268 266.42 251.58"/><polyline class="cls-6" points="233.58 284.42 250 347.5 266.42 284.42 250 268 233.58 284.42"/><path class="cls-7" d="M250,268v75.43a.52.52,0,0,1-1,.13l-15.4-59.14Z"/><path class="cls-7" d="M250,268V191.24a.35.35,0,0,1,.69-.09l15.73,60.42Z"/><path class="cls-8" d="M250,111.39A156.61,156.61,0,1,0,406.61,268,156.61,156.61,0,0,0,250,111.39Zm0,293.41a136.79,136.79,0,0,1-6.51-273.42h13A136.79,136.79,0,0,1,250,404.79Z"/><path class="cls-7" d="M191.56,172.36a6,6,0,0,1-5.18-3l-8.93-15.47a6,6,0,1,1,10.36-6l8.93,15.47a6,6,0,0,1-5.17,9Z"/><path class="cls-7" d="M148.77,215.14a6,6,0,0,1-3-.8l-15.47-8.93a6,6,0,0,1,6-10.36L151.76,204a6,6,0,0,1-3,11.16Z"/><path class="cls-7" d="M133.11,273.58H115.26a6,6,0,1,1,0-12h17.86a6,6,0,1,1,0,12Z"/><path class="cls-7" d="M133.31,341a6,6,0,0,1-3-11.16l15.47-8.93a6,6,0,1,1,6,10.36l-15.47,8.93A6,6,0,0,1,133.31,341Z"/><path class="cls-7" d="M182.62,390.27a6,6,0,0,1-5.17-9l8.93-15.47a6,6,0,0,1,10.36,6l-8.93,15.47A6,6,0,0,1,182.62,390.27Z"/><path class="cls-7" d="M250,408.32a6,6,0,0,1-6-6V384.48a6,6,0,1,1,12,0v17.86A6,6,0,0,1,250,408.32Z"/><path class="cls-7" d="M317.38,390.27a6,6,0,0,1-5.18-3l-8.93-15.47a6,6,0,1,1,10.36-6l8.93,15.47a6,6,0,0,1-5.17,9Z"/><path class="cls-7" d="M366.69,341a6,6,0,0,1-3-.8l-15.47-8.93a6,6,0,1,1,6-10.36l15.47,8.93a6,6,0,0,1-3,11.16Z"/><path class="cls-7" d="M384.74,273.58H366.89a6,6,0,0,1,0-12h17.86a6,6,0,1,1,0,12Z"/><path class="cls-7" d="M351.23,215.14a6,6,0,0,1-3-11.16L363.7,195a6,6,0,0,1,6,10.36l-15.47,8.93A6,6,0,0,1,351.23,215.14Z"/><path class="cls-7" d="M308.44,172.36a6,6,0,0,1-5.17-9l8.93-15.47a6,6,0,1,1,10.36,6l-8.93,15.47A6,6,0,0,1,308.44,172.36Z"/><polygon class="cls-8" points="250 154.52 268.11 123.15 231.89 123.15 250 154.52"/><path class="cls-7" d="M250,122.86A145.14,145.14,0,1,0,395.14,268,145.14,145.14,0,0,0,250,122.86Zm0,281.93a136.79,136.79,0,0,1-6.51-273.42h13A136.79,136.79,0,0,1,250,404.79Z"/></svg>