<svg id="Layer_1" data-name="Layer 1" xmlns="http://www.w3.org/2000/svg" viewBox="0 0 1253.39 301.05" ><defs><style>.cls-1{fill:none;stroke:#bfbfbf;stroke-linecap:round;stroke-linejoin:round;stroke-width:4px;}</style></defs><title>footer_embellish_light</title><polygon class="cls-1" points="1244.25 299.05 1232.88 293.02 1221.47 298.96 1223.7 286.28 1214.52 277.26 1227.26 275.46 1233.01 263.94 1238.66 275.51 1251.39 277.42 1242.13 286.36 1244.25 299.05" /><polygon class="cls-1" points="1212.81 205.45 1203.78 200.81 1194.71 205.38 1196.48 195.62 1189.19 188.67 1199.32 187.28 1203.88 178.41 1208.36 187.32 1218.47 188.79 1211.12 195.68 1212.81 205.45" /><polygon class="cls-1" points="425.67 150.59 411.82 143.45 397.9 150.48 400.62 135.49 389.43 124.82 404.97 122.7 411.97 109.08 418.85 122.76 434.36 125.01 423.09 135.58 425.67 150.59" /><line class="cls-1" x1="902.93" y1="161.08" x2="954.28" y2="161.08" /><line class="cls-1" x1="902.93" y1="97.19" x2="954.28" y2="97.19" /><line class="cls-1" x1="923.19" y1="90.29" x2="933.93" y2="90.29" /><ellipse class="cls-1" cx="916.47" cy="142.81" rx="5.07" ry="3.63" /><ellipse class="cls-1" cx="936.64" cy="139.99" rx="5.07" ry="3.63" /><polyline class="cls-1" points="941.71 140 941.71 114.47 921.55 116.85 921.55 142.81" /><line class="cls-1" x1="921.55" y1="121.97" x2="941.71" y2="119.67" /><ellipse class="cls-1" cx="928.61" cy="170.56" rx="3.12" ry="3.03" /><path class="cls-1" d="M694.38,143.92a24.68,24.68,0,0,0,2.19-10.15c0-14-11.74-25.44-26.22-25.44s-26.22,11.36-26.22,25.44A24.65,24.65,0,0,0,646.32,144Z" transform="translate(-0.5 -0.45)" /><line class="cls-1" x1="644.71" y1="140.5" x2="677.44" y2="108.93" /><line class="cls-1" x1="661.53" y1="143.5" x2="689.55" y2="116.49" /><line class="cls-1" x1="681.06" y1="143.31" x2="695.53" y2="129.45" /><line class="cls-1" x1="650.11" y1="116.55" x2="677.68" y2="143.47" /><line class="cls-1" x1="662.3" y1="108.95" x2="694.85" y2="140.7" /><line class="cls-1" x1="644" y1="129.11" x2="658.65" y2="143.51" /><polygon class="cls-1" points="656.09 154.13 683.77 154.13 677.44 230.57 662.3 230.57 656.09 154.13" /><line class="cls-1" x1="665.07" y1="164.48" x2="665.07" y2="172.82" /><line class="cls-1" x1="716.18" y1="211.04" x2="716.18" y2="172.82" /><line class="cls-1" x1="692.98" y1="232.03" x2="692.98" y2="172.82" /><path class="cls-1" d="M716.71,173.28a11.7,11.7,0,0,0-23.2,0" transform="translate(-0.5 -0.45)" /><path class="cls-1" d="M717.54,174.55" transform="translate(-0.5 -0.45)" /><path class="cls-1" d="M692.85,174.55" transform="translate(-0.5 -0.45)" /><path class="cls-1" d="M670.28,232.48a11.7,11.7,0,0,0,23.2,0" transform="translate(-0.5 -0.45)" /><path class="cls-1" d="M684.27,154.58a36.44,36.44,0,0,0,10.11-10.66" transform="translate(-0.5 -0.45)" /><path class="cls-1" d="M656.59,154.58a36.35,36.35,0,0,1-10.12-10.66" transform="translate(-0.5 -0.45)" /><rect class="cls-1" x="738.37" y="130.09" width="140.75" height="138.65" /><rect class="cls-1" x="750.33" y="176.82" width="20.58" height="9.23" /><rect class="cls-1" x="750.33" y="192.25" width="20.58" height="9.23" /><rect class="cls-1" x="782.3" y="176.82" width="20.58" height="9.23" /><rect class="cls-1" x="782.3" y="192.25" width="20.58" height="9.23" /><rect class="cls-1" x="813.96" y="176.82" width="20.58" height="9.23" /><rect class="cls-1" x="813.96" y="192.25" width="20.58" height="9.23" /><rect class="cls-1" x="845.45" y="176.82" width="20.58" height="9.23" /><rect class="cls-1" x="845.45" y="192.25" width="20.58" height="9.23" /><ellipse class="cls-1" cx="760.61" cy="143.15" rx="6.65" ry="6.45" /><ellipse class="cls-1" cx="760.63" cy="163.21" rx="6.65" ry="6.45" /><ellipse class="cls-1" cx="760.63" cy="218.25" rx="6.65" ry="6.45" /><ellipse class="cls-1" cx="792.58" cy="143.15" rx="6.65" ry="6.45" /><ellipse class="cls-1" cx="792.6" cy="163.21" rx="6.65" ry="6.45" /><ellipse class="cls-1" cx="792.6" cy="238.63" rx="6.65" ry="6.45" /><ellipse class="cls-1" cx="824.24" cy="143.15" rx="6.65" ry="6.45" /><ellipse class="cls-1" cx="824.26" cy="163.21" rx="6.65" ry="6.45" /><ellipse class="cls-1" cx="824.24" cy="245.52" rx="6.65" ry="6.45" /><ellipse class="cls-1" cx="855.74" cy="143.15" rx="6.65" ry="6.45" /><ellipse class="cls-1" cx="855.76" cy="163.21" rx="6.65" ry="6.45" /><ellipse class="cls-1" cx="855.76" cy="223.69" rx="6.65" ry="6.45" /><line class="cls-1" x1="760.63" y1="207.9" x2="760.63" y2="211.8" /><line class="cls-1" x1="760.63" y1="224.7" x2="760.63" y2="255.97" /><line class="cls-1" x1="792.58" y1="207.9" x2="792.58" y2="232.19" /><line class="cls-1" x1="792.6" y1="245.08" x2="792.6" y2="255.97" /><line class="cls-1" x1="824.24" y1="207.9" x2="824.24" y2="239.07" /><line class="cls-1" x1="824.24" y1="251.96" x2="824.24" y2="255.97" /><line class="cls-1" x1="855.76" y1="207.9" x2="855.76" y2="217.25" /><line class="cls-1" x1="855.76" y1="230.14" x2="855.76" y2="255.97" /><ellipse class="cls-1" cx="536.96" cy="118.81" rx="7.44" ry="7.22" /><ellipse class="cls-1" cx="546.39" cy="210.85" rx="9.43" ry="9.15" /><ellipse class="cls-1" cx="576.28" cy="210.85" rx="9.43" ry="9.15" /><rect class="cls-1" x="442.09" y="153.03" width="162.11" height="96.16" /><rect class="cls-1" x="460.61" y="166.63" width="125.09" height="22.73" /><polyline class="cls-1" points="549.9 153.03 549.9 144.11 565.14 144.11 565.14 153.03" /><polyline class="cls-1" points="575.16 153.03 575.16 144.11 590.39 144.11 590.39 153.03" /><line class="cls-1" x1="529.9" y1="121.07" x2="456.7" y2="153.03" /><line class="cls-1" x1="473.52" y1="189.35" x2="473.52" y2="183.89" /><line class="cls-1" x1="485.78" y1="189.35" x2="485.78" y2="177.99" /><line class="cls-1" x1="498.57" y1="189.35" x2="498.57" y2="183.89" /><line class="cls-1" x1="510.83" y1="189.35" x2="510.83" y2="177.99" /><line class="cls-1" x1="523.16" y1="189.35" x2="523.16" y2="183.89" /><line class="cls-1" x1="535.42" y1="189.35" x2="535.42" y2="177.99" /><line class="cls-1" x1="548.21" y1="189.35" x2="548.21" y2="183.89" /><line class="cls-1" x1="573.54" y1="189.35" x2="573.54" y2="183.89" /><line class="cls-1" x1="560.47" y1="189.35" x2="560.47" y2="177.99" /><rect class="cls-1" x="460.61" y="199.01" width="44.96" height="7.76" /><rect class="cls-1" x="460.61" y="215.52" width="44.96" height="7.76" /><line class="cls-1" x1="442.09" y1="231.77" x2="604.19" y2="231.77" /><polygon class="cls-1" points="999.7 179.97 990.67 175.32 981.61 179.9 983.38 170.13 976.09 163.19 986.21 161.8 990.77 152.93 995.26 161.84 1005.36 163.31 998.01 170.2 999.7 179.97" /><polygon class="cls-1" points="354.43 150.57 345.4 145.92 336.34 150.5 338.11 140.73 330.82 133.78 340.94 132.4 345.5 123.53 349.99 132.44 360.09 133.91 352.75 140.79 354.43 150.57" /><polygon class="cls-1" points="637.15 233.56 628.12 228.91 619.06 233.49 620.83 223.73 613.54 216.78 623.66 215.39 628.22 206.52 632.71 215.43 642.81 216.9 635.46 223.79 637.15 233.56" /><rect class="cls-1" x="902.93" y="84.36" width="51.35" height="93.86" rx="5.79" /><ellipse class="cls-1" cx="191.22" cy="174.4" rx="8.99" ry="6.42" /><ellipse class="cls-1" cx="226.96" cy="169.4" rx="8.99" ry="6.42" /><polyline class="cls-1" points="235.95 169.4 235.95 124.16 200.21 128.38 200.21 174.4" /><line class="cls-1" x1="200.21" y1="137.46" x2="235.95" y2="133.38" /><ellipse class="cls-1" cx="247.82" cy="186.16" rx="10.22" ry="7.31" /><path class="cls-1" d="M258.55,186.61V141.86a44.05,44.05,0,0,0,7.59,12.79c5.14,5.93,1.94,10.73,1.94,10.73" transform="translate(-0.5 -0.45)" /><rect class="cls-1" x="130.73" y="98.03" width="187.06" height="121.25" /><path class="cls-1" d="M118.79,229.93V219.77H331.32V230s-1.15,11.63-13,11.75-187.06,0-187.06,0S118.79,240.12,118.79,229.93Z" transform="translate(-0.5 -0.45)" /><rect class="cls-1" x="214.03" y="226.95" width="21.91" height="7.2" /><rect class="cls-1" x="141.5" y="107.69" width="166.01" height="101.64" /><polygon class="cls-1" points="1001.26 96.38 1035.37 87.06 1055.76 175.87 1026.74 186.14 1001.26 96.38" /><polygon class="cls-1" points="1189.19 96.38 1155.08 87.06 1134.69 175.87 1163.71 186.14 1189.19 96.38" /><polyline class="cls-1" points="1035.37 87.06 1053.12 70.07 1074.91 81.11 1095.07 67.37 1115.24 81.11 1137.03 70.07 1155.08 87.06" /><polyline class="cls-1" points="1134.69 175.87 1122.66 164.05 1108.75 171.92 1095.23 164.05 1081.86 172.14 1067.26 164.05 1055.76 175.87" /><line class="cls-1" x1="1053.12" y1="70.07" x2="1067.26" y2="164.05" /><line class="cls-1" x1="1081.86" y1="172.15" x2="1074.91" y2="81.11" /><line class="cls-1" x1="1095.07" y1="67.37" x2="1095.23" y2="164.05" /><line class="cls-1" x1="1108.75" y1="171.92" x2="1115.24" y2="81.11" /><line class="cls-1" x1="1137.03" y1="70.07" x2="1122.66" y2="164.05" /><line class="cls-1" x1="1039.81" y1="106.41" x2="1014.64" y2="113.24" /><line class="cls-1" x1="1042.44" y1="117.68" x2="1017.26" y2="124.5" /><line class="cls-1" x1="1047.03" y1="137.85" x2="1023.5" y2="144.29" /><line class="cls-1" x1="1049.67" y1="149.34" x2="1026.63" y2="155.79" /><line class="cls-1" x1="1052.1" y1="159.93" x2="1029.85" y2="166.21" /><ellipse class="cls-1" cx="1173.65" cy="107.71" rx="4.79" ry="4.65" /><ellipse class="cls-1" cx="1160.63" cy="119.99" rx="4.79" ry="4.65" /><ellipse class="cls-1" cx="1165.42" cy="136.13" rx="4.79" ry="4.65" /><ellipse class="cls-1" cx="1154.07" cy="149.89" rx="4.79" ry="4.65" /><ellipse class="cls-1" cx="1156.46" cy="166.7" rx="4.79" ry="4.65" /><rect class="cls-1" x="904.58" y="214.52" width="6.41" height="14.34" /><path class="cls-1" d="M911.49,218.62s120.32,4.43,132.8-24.21v55.85c-12.48-28.63-132.8-24.21-132.8-24.21" transform="translate(-0.5 -0.45)" /><ellipse class="cls-1" cx="954.71" cy="203.58" rx="5.69" ry="3.7" /><ellipse class="cls-1" cx="970.4" cy="203.58" rx="5.69" ry="3.7" /><ellipse class="cls-1" cx="986.09" cy="203.58" rx="5.69" ry="3.7" /><path class="cls-1" d="M1012.45,232.93v11.19a9.08,9.08,0,0,1-9.22,8.94h-67.7a8.87,8.87,0,0,1-9-8.74h0V225.77" transform="translate(-0.5 -0.45)" /><rect class="cls-1" x="952.42" y="207.28" width="4.56" height="45.32" /><rect class="cls-1" x="968.12" y="207.28" width="4.56" height="45.32" /><rect class="cls-1" x="983.81" y="207.28" width="4.56" height="45.32" /><ellipse class="cls-1" cx="373.63" cy="197.14" rx="7.36" ry="7.14" /><ellipse class="cls-1" cx="374" cy="196.86" rx="37.99" ry="36.85" /><line class="cls-1" x1="369.77" y1="203.21" x2="355.08" y2="228.81" /><path class="cls-1" d="M370.27,203.66" transform="translate(-0.5 -0.45)" /><path class="cls-1" d="M377.42,191.2" transform="translate(-0.5 -0.45)" /><line class="cls-1" x1="392.03" y1="164.42" x2="376.92" y2="190.76" /><line class="cls-1" x1="380.71" y1="195.21" x2="410.77" y2="187.57" /><path class="cls-1" d="M381.21,195.67" transform="translate(-0.5 -0.45)" /><line class="cls-1" x1="337.26" y1="206.26" x2="366.49" y2="198.83" /><rect class="cls-1" x="49.61" y="57.78" width="11.66" height="150.98" /><path class="cls-1" d="M61.77,58.2s12-1.83,11.22-13-7.07-14.46.48-26.6.67-15.29-3.54-16.13S44.59,34.91,43.54,42s.62,11.31,6.57,16.21Z" transform="translate(-0.5 -0.45)" /><line class="cls-1" x1="50.66" y1="25.89" x2="42" y2="20.69" /><line class="cls-1" x1="43.43" y1="40.04" x2="33.95" y2="35.5" /><line class="cls-1" x1="32.27" y1="37.77" x2="36.71" y2="30.72" /><line class="cls-1" x1="40.3" y1="23.29" x2="44.95" y2="16.29" /><path class="cls-1" d="M61.77,148s17.55,6.22,23.14-18.12,12.11,0,12.11,0,5.12,19.45-3.91,35.24C85.55,178.31,95,198.24,95,198.24s15,22.71,7.09,38.34S83.27,255.65,56,255.65s-58.8-11.82-52.7-38.13c0,0,3.34-16.36,11.3-29.71s6.88-28.47,1.79-40.86c0,0-12.13-32.37,10-50.27,12.69-10.26,3.88,15.56,3.88,15.56s-8,37.28,19.9,36" transform="translate(-0.5 -0.45)" /><rect class="cls-1" x="44.15" y="208.76" width="23.02" height="11.28" /><ellipse class="cls-1" cx="85.96" cy="202.64" rx="3.1" ry="3.01" /><ellipse class="cls-1" cx="90.7" cy="214.7" rx="3.1" ry="3.01" /><polyline class="cls-1" points="67.17 220.04 73.98 195.51 73.98 186.45" /><polygon class="cls-1" points="114.58 183.35 108.67 180.31 102.74 183.31 103.9 176.92 99.13 172.37 105.75 171.46 108.74 165.66 111.67 171.49 118.29 172.45 113.48 176.96 114.58 183.35" /></svg>