<svg id="Layer_1" data-name="Layer 1" xmlns="http://www.w3.org/2000/svg" viewBox="0 0 1253.15 300.71"><defs><style>.cls-1,.cls-10,.cls-2,.cls-4,.cls-5,.cls-6,.cls-7,.cls-8,.cls-9{fill:none;stroke:#323333;stroke-linecap:round;stroke-linejoin:round;}.cls-1,.cls-5{stroke-width:3.96px;}.cls-1,.cls-10,.cls-2,.cls-3{opacity:0.5;}.cls-2,.cls-4{stroke-width:3.23px;}.cls-6{stroke-width:3.52px;}.cls-7{stroke-width:3.23px;}.cls-8{stroke-width:3px;}.cls-9{stroke-width:3.53px;}.cls-10{stroke-width:2.59px;}</style></defs><title>footer_embellish</title><polygon class="cls-1" points="1244.04 298.73 1232.67 292.7 1221.26 298.64 1223.49 285.96 1214.31 276.94 1227.05 275.14 1232.8 263.62 1238.45 275.19 1251.18 277.1 1241.92 286.04 1244.04 298.73"/><polygon class="cls-1" points="1212.6 205.13 1203.57 200.49 1194.5 205.06 1196.27 195.3 1188.98 188.35 1199.11 186.96 1203.67 178.09 1208.15 187 1218.26 188.47 1210.91 195.36 1212.6 205.13"/><polygon class="cls-1" points="425.46 150.27 411.61 143.13 397.69 150.16 400.41 135.17 389.22 124.5 404.76 122.38 411.76 108.76 418.64 122.44 434.15 124.69 422.88 135.26 425.46 150.27"/><line class="cls-2" x1="902.72" y1="160.76" x2="954.07" y2="160.76"/><line class="cls-2" x1="902.72" y1="96.87" x2="954.07" y2="96.87"/><line class="cls-2" x1="922.98" y1="89.97" x2="933.72" y2="89.97"/><g class="cls-3"><ellipse class="cls-4" cx="916.26" cy="142.49" rx="5.07" ry="3.63"/><ellipse class="cls-4" cx="936.43" cy="139.67" rx="5.07" ry="3.63"/><polyline class="cls-4" points="941.5 139.68 941.5 114.15 921.34 116.53 921.34 142.49"/><line class="cls-4" x1="921.34" y1="121.65" x2="941.5" y2="119.35"/></g><ellipse class="cls-2" cx="928.4" cy="170.24" rx="3.12" ry="3.03"/><g class="cls-3"><path class="cls-5" d="M775.41,386.72a24.63,24.63,0,0,0,2.19-10.18c0-14.05-11.74-25.44-26.22-25.44s-26.22,11.39-26.22,25.44a24.63,24.63,0,0,0,2.19,10.18Z" transform="translate(-81.74 -243.57)"/><line class="cls-5" x1="644.5" y1="140.18" x2="677.23" y2="108.61"/><line class="cls-5" x1="661.32" y1="143.18" x2="689.34" y2="116.17"/><line class="cls-5" x1="680.85" y1="142.99" x2="695.32" y2="129.13"/><line class="cls-5" x1="649.9" y1="116.23" x2="677.47" y2="143.15"/><line class="cls-5" x1="662.09" y1="108.63" x2="694.64" y2="140.38"/><line class="cls-5" x1="643.79" y1="128.79" x2="658.44" y2="143.19"/><polygon class="cls-5" points="655.88 153.81 683.56 153.81 677.23 230.25 662.09 230.25 655.88 153.81"/><line class="cls-5" x1="664.86" y1="164.16" x2="664.86" y2="172.5"/><line class="cls-5" x1="715.97" y1="210.72" x2="715.97" y2="172.5"/><line class="cls-5" x1="692.77" y1="231.71" x2="692.77" y2="172.5"/><path class="cls-5" d="M797.71,416.08a11.7,11.7,0,0,0-23.2,0" transform="translate(-81.74 -243.57)"/><path class="cls-5" d="M798.57,417.35" transform="translate(-81.74 -243.57)"/><path class="cls-5" d="M773.88,417.35" transform="translate(-81.74 -243.57)"/><path class="cls-5" d="M751.31,475.28a11.7,11.7,0,0,0,23.2,0" transform="translate(-81.74 -243.57)"/><path class="cls-5" d="M765.3,397.38a36.23,36.23,0,0,0,10.11-10.66" transform="translate(-81.74 -243.57)"/><path class="cls-5" d="M737.62,397.38a36.33,36.33,0,0,1-10.12-10.66" transform="translate(-81.74 -243.57)"/></g><g class="cls-3"><rect class="cls-5" x="738.16" y="129.77" width="140.75" height="138.65"/><rect class="cls-5" x="750.12" y="176.5" width="20.58" height="9.23"/><rect class="cls-5" x="750.12" y="191.93" width="20.58" height="9.23"/><rect class="cls-5" x="782.09" y="176.5" width="20.58" height="9.23"/><rect class="cls-5" x="782.09" y="191.93" width="20.58" height="9.23"/><rect class="cls-5" x="813.75" y="176.5" width="20.58" height="9.23"/><rect class="cls-5" x="813.75" y="191.93" width="20.58" height="9.23"/><rect class="cls-5" x="845.24" y="176.5" width="20.58" height="9.23"/><rect class="cls-5" x="845.24" y="191.93" width="20.58" height="9.23"/><ellipse class="cls-5" cx="760.4" cy="142.83" rx="6.65" ry="6.45"/><ellipse class="cls-5" cx="760.42" cy="162.89" rx="6.65" ry="6.45"/><ellipse class="cls-5" cx="760.42" cy="217.93" rx="6.65" ry="6.45"/><ellipse class="cls-5" cx="792.37" cy="142.83" rx="6.65" ry="6.45"/><ellipse class="cls-5" cx="792.39" cy="162.89" rx="6.65" ry="6.45"/><ellipse class="cls-5" cx="792.39" cy="238.31" rx="6.65" ry="6.45"/><ellipse class="cls-5" cx="824.03" cy="142.83" rx="6.65" ry="6.45"/><ellipse class="cls-5" cx="824.05" cy="162.89" rx="6.65" ry="6.45"/><ellipse class="cls-5" cx="824.03" cy="245.2" rx="6.65" ry="6.45"/><ellipse class="cls-5" cx="855.53" cy="142.83" rx="6.65" ry="6.45"/><ellipse class="cls-5" cx="855.55" cy="162.89" rx="6.65" ry="6.45"/><ellipse class="cls-5" cx="855.55" cy="223.37" rx="6.65" ry="6.45"/><line class="cls-5" x1="760.42" y1="207.58" x2="760.42" y2="211.48"/><line class="cls-5" x1="760.42" y1="224.38" x2="760.42" y2="255.65"/><line class="cls-5" x1="792.37" y1="207.58" x2="792.37" y2="231.87"/><line class="cls-5" x1="792.39" y1="244.76" x2="792.39" y2="255.65"/><line class="cls-5" x1="824.03" y1="207.58" x2="824.03" y2="238.75"/><line class="cls-5" x1="824.03" y1="251.64" x2="824.03" y2="255.65"/><line class="cls-5" x1="855.55" y1="207.58" x2="855.55" y2="216.93"/><line class="cls-5" x1="855.55" y1="229.82" x2="855.55" y2="255.65"/></g><g class="cls-3"><ellipse class="cls-5" cx="536.75" cy="118.49" rx="7.44" ry="7.22"/><ellipse class="cls-5" cx="546.18" cy="210.53" rx="9.43" ry="9.15"/><ellipse class="cls-5" cx="576.07" cy="210.53" rx="9.43" ry="9.15"/><rect class="cls-5" x="441.88" y="152.71" width="162.11" height="96.16"/><rect class="cls-5" x="460.4" y="166.31" width="125.09" height="22.73"/><polyline class="cls-5" points="549.69 152.71 549.69 143.79 564.93 143.79 564.93 152.71"/><polyline class="cls-5" points="574.95 152.71 574.95 143.79 590.18 143.79 590.18 152.71"/><line class="cls-5" x1="529.69" y1="120.75" x2="456.49" y2="152.71"/><line class="cls-5" x1="473.31" y1="189.03" x2="473.31" y2="183.57"/><line class="cls-5" x1="485.57" y1="189.03" x2="485.57" y2="177.67"/><line class="cls-5" x1="498.36" y1="189.03" x2="498.36" y2="183.57"/><line class="cls-5" x1="510.62" y1="189.03" x2="510.62" y2="177.67"/><line class="cls-5" x1="522.95" y1="189.03" x2="522.95" y2="183.57"/><line class="cls-5" x1="535.21" y1="189.03" x2="535.21" y2="177.67"/><line class="cls-5" x1="548" y1="189.03" x2="548" y2="183.57"/><line class="cls-5" x1="573.33" y1="189.03" x2="573.33" y2="183.57"/><line class="cls-5" x1="560.26" y1="189.03" x2="560.26" y2="177.67"/><rect class="cls-5" x="460.4" y="198.69" width="44.96" height="7.76"/><rect class="cls-5" x="460.4" y="215.2" width="44.96" height="7.76"/><line class="cls-5" x1="441.88" y1="231.45" x2="603.98" y2="231.45"/></g><polygon class="cls-1" points="999.49 179.65 990.46 175 981.4 179.58 983.17 169.81 975.88 162.87 986 161.48 990.56 152.61 995.05 161.52 1005.15 162.99 997.8 169.88 999.49 179.65"/><polygon class="cls-1" points="354.22 150.25 345.19 145.6 336.13 150.18 337.9 140.41 330.61 133.46 340.73 132.08 345.29 123.21 349.78 132.12 359.88 133.59 352.54 140.47 354.22 150.25"/><polygon class="cls-1" points="636.94 233.24 627.91 228.59 618.85 233.17 620.62 223.41 613.33 216.46 623.45 215.07 628.01 206.2 632.5 215.11 642.6 216.58 635.25 223.47 636.94 233.24"/><rect class="cls-2" x="902.72" y="84.04" width="51.35" height="93.86" rx="5.79"/><g class="cls-3"><ellipse class="cls-6" cx="191.01" cy="174.08" rx="8.99" ry="6.42"/><ellipse class="cls-6" cx="226.75" cy="169.08" rx="8.99" ry="6.42"/><polyline class="cls-6" points="235.74 169.08 235.74 123.84 200 128.06 200 174.08"/><line class="cls-6" x1="200" y1="137.14" x2="235.74" y2="133.06"/><ellipse class="cls-6" cx="247.61" cy="185.84" rx="10.22" ry="7.31"/><path class="cls-6" d="M339.58,429.41V384.66a44.13,44.13,0,0,0,7.59,12.79c5.14,5.93,1.94,10.73,1.94,10.73" transform="translate(-81.74 -243.57)"/><rect class="cls-6" x="130.52" y="97.71" width="187.06" height="121.25"/><path class="cls-6" d="M199.82,472.73V462.54H412.35v10.19s-1.15,11.63-13,11.75-187.06,0-187.06,0S199.82,482.92,199.82,472.73Z" transform="translate(-81.74 -243.57)"/><rect class="cls-6" x="213.82" y="226.63" width="21.91" height="7.2"/><rect class="cls-6" x="141.29" y="107.37" width="166.01" height="101.64"/></g><g class="cls-3"><polygon class="cls-7" points="1001.05 96.06 1035.16 86.74 1055.55 175.55 1026.53 185.82 1001.05 96.06"/><polygon class="cls-7" points="1188.98 96.06 1154.87 86.74 1134.48 175.55 1163.5 185.82 1188.98 96.06"/><polyline class="cls-7" points="1035.16 86.74 1052.91 69.75 1074.7 80.79 1094.86 67.05 1115.03 80.79 1136.82 69.75 1154.87 86.74"/><polyline class="cls-7" points="1134.48 175.55 1122.45 163.73 1108.54 171.6 1095.02 163.73 1081.65 171.82 1067.05 163.73 1055.55 175.55"/><line class="cls-7" x1="1052.91" y1="69.75" x2="1067.05" y2="163.73"/><line class="cls-7" x1="1081.65" y1="171.83" x2="1074.7" y2="80.79"/><line class="cls-7" x1="1094.86" y1="67.05" x2="1095.02" y2="163.73"/><line class="cls-7" x1="1108.54" y1="171.6" x2="1115.03" y2="80.79"/><line class="cls-7" x1="1136.82" y1="69.75" x2="1122.45" y2="163.73"/><line class="cls-7" x1="1039.6" y1="106.09" x2="1014.43" y2="112.92"/><line class="cls-7" x1="1042.23" y1="117.36" x2="1017.05" y2="124.18"/><line class="cls-7" x1="1046.82" y1="137.53" x2="1023.29" y2="143.97"/><line class="cls-7" x1="1049.46" y1="149.02" x2="1026.42" y2="155.47"/><line class="cls-7" x1="1051.89" y1="159.61" x2="1029.64" y2="165.89"/><ellipse class="cls-7" cx="1173.44" cy="107.39" rx="4.79" ry="4.65"/><ellipse class="cls-7" cx="1160.42" cy="119.67" rx="4.79" ry="4.65"/><ellipse class="cls-7" cx="1165.21" cy="135.81" rx="4.79" ry="4.65"/><ellipse class="cls-7" cx="1153.86" cy="149.57" rx="4.79" ry="4.65"/><ellipse class="cls-7" cx="1156.25" cy="166.38" rx="4.79" ry="4.65"/></g><g class="cls-3"><rect class="cls-8" x="904.37" y="214.2" width="6.41" height="14.34"/><path class="cls-8" d="M992.52,461.42s120.32,4.43,132.8-24.21v55.85c-12.48-28.63-132.8-24.21-132.8-24.21" transform="translate(-81.74 -243.57)"/><ellipse class="cls-8" cx="954.5" cy="203.26" rx="5.69" ry="3.7"/><ellipse class="cls-8" cx="970.19" cy="203.26" rx="5.69" ry="3.7"/><ellipse class="cls-8" cx="985.88" cy="203.26" rx="5.69" ry="3.7"/><path class="cls-8" d="M1093.48,475.73v11.19a9.08,9.08,0,0,1-9.22,8.94h-67.7a8.87,8.87,0,0,1-9-8.74V468.61" transform="translate(-81.74 -243.57)"/><rect class="cls-8" x="952.21" y="206.96" width="4.56" height="45.32"/><rect class="cls-8" x="967.91" y="206.96" width="4.56" height="45.32"/><rect class="cls-8" x="983.6" y="206.96" width="4.56" height="45.32"/></g><g class="cls-3"><ellipse class="cls-8" cx="373.42" cy="196.82" rx="7.36" ry="7.14"/><ellipse class="cls-8" cx="373.79" cy="196.54" rx="37.99" ry="36.85"/><line class="cls-8" x1="369.56" y1="202.89" x2="354.87" y2="228.49"/><path class="cls-8" d="M451.3,446.46" transform="translate(-81.74 -243.57)"/><path class="cls-8" d="M458.45,434" transform="translate(-81.74 -243.57)"/><line class="cls-8" x1="391.82" y1="164.1" x2="376.71" y2="190.44"/><line class="cls-8" x1="380.5" y1="194.89" x2="410.56" y2="187.25"/><path class="cls-8" d="M462.24,438.47" transform="translate(-81.74 -243.57)"/><line class="cls-8" x1="337.05" y1="205.94" x2="366.28" y2="198.51"/></g><g class="cls-3"><rect class="cls-9" x="49.4" y="57.46" width="11.66" height="150.98"/><path class="cls-9" d="M142.8,301s12-1.83,11.22-12.95-7.07-14.46.48-26.6.67-15.29-3.54-16.13-25.34,32.39-26.39,39.47.62,11.31,6.57,16.21Z" transform="translate(-81.74 -243.57)"/><line class="cls-9" x1="50.45" y1="25.57" x2="41.79" y2="20.37"/><line class="cls-9" x1="43.22" y1="39.72" x2="33.74" y2="35.18"/><line class="cls-9" x1="32.06" y1="37.45" x2="36.5" y2="30.4"/><line class="cls-9" x1="40.09" y1="22.97" x2="44.74" y2="15.97"/><path class="cls-9" d="M142.8,390.8s17.55,6.22,23.14-18.12,12.11,0,12.11,0,5.12,19.45-3.91,35.24c-7.56,13.19,1.91,33.12,1.91,33.12s14.95,22.71,7.09,38.34S164.3,498.45,137,498.45s-58.8-11.82-52.7-38.13c0,0,3.34-16.36,11.3-29.71s6.88-28.47,1.79-40.86c0,0-12.13-32.37,10-50.27,12.69-10.26,3.88,15.56,3.88,15.56s-8,37.28,19.9,36" transform="translate(-81.74 -243.57)"/><rect class="cls-9" x="43.94" y="208.44" width="23.02" height="11.28"/><ellipse class="cls-9" cx="85.75" cy="202.32" rx="3.1" ry="3.01"/><ellipse class="cls-9" cx="90.49" cy="214.38" rx="3.1" ry="3.01"/><polyline class="cls-9" points="66.96 219.72 73.77 195.19 73.77 186.13"/></g><polygon class="cls-10" points="114.37 183.03 108.46 179.99 102.53 182.99 103.69 176.6 98.92 172.05 105.54 171.14 108.53 165.34 111.46 171.17 118.08 172.13 113.27 176.64 114.37 183.03"/></svg>