<svg id="Layer_1" data-name="Layer 1" xmlns="http://www.w3.org/2000/svg" xmlns:xlink="http://www.w3.org/1999/xlink" viewBox="0 0 500 500"><defs><style>.cls-1,.cls-6{fill:none;}.cls-2{fill:#c6c6c6;}.cls-3{clip-path:url(#clip-path);}.cls-4{fill:#4d4d4d;}.cls-5{fill:#999;}.cls-6{stroke:#999;stroke-linecap:round;stroke-linejoin:round;stroke-width:2.18px;}.cls-7{fill:gray;}.cls-8{clip-path:url(#clip-path-2);}</style><clipPath id="clip-path"><path class="cls-1" d="M307.22,33l53.89,56.8a78.87,78.87,0,0,0,23.27,16.91l70.68,33.7a78.87,78.87,0,0,1,35.36,108.83L453,318a78.87,78.87,0,0,0-8.89,27.36L433.95,423a78.87,78.87,0,0,1-92.58,67.26l-77-14.28a78.87,78.87,0,0,0-28.76,0l-77,14.28A78.87,78.87,0,0,1,66.05,423L55.84,345.38A78.87,78.87,0,0,0,47,318L9.58,249.22A78.87,78.87,0,0,1,44.94,140.39l70.68-33.7a78.87,78.87,0,0,0,23.27-16.91L192.78,33A78.87,78.87,0,0,1,307.22,33Z"/></clipPath><clipPath id="clip-path-2"><path class="cls-1" d="M141.74,375.48,273,413.78l48.2-165.27ZM255.09,381l-53.44-15.59,73.06-51.68Z"/></clipPath></defs><title>Artboard 4 copy</title><path class="cls-2" d="M307.22,33l53.89,56.8a78.87,78.87,0,0,0,23.27,16.91l70.68,33.7a78.87,78.87,0,0,1,35.36,108.83L453,318a78.87,78.87,0,0,0-8.89,27.36L433.95,423a78.87,78.87,0,0,1-92.58,67.26l-77-14.28a78.87,78.87,0,0,0-28.76,0l-77,14.28A78.87,78.87,0,0,1,66.05,423L55.84,345.38A78.87,78.87,0,0,0,47,318L9.58,249.22A78.87,78.87,0,0,1,44.94,140.39l70.68-33.7a78.87,78.87,0,0,0,23.27-16.91L192.78,33A78.87,78.87,0,0,1,307.22,33Z"/><g class="cls-3"><polygon class="cls-2" points="384.99 178 369.1 178 320.99 226.24 179.93 224.66 141.93 361.07 156.85 376.14 142 375 356.5 588.85 574 369.03 384.99 178"/></g><path class="cls-4" d="M217.18,161H361.29a14.18,14.18,0,0,1,14.18,14.18V348.82A14.18,14.18,0,0,1,361.29,363H217.18a0,0,0,0,1,0,0V161a0,0,0,0,1,0,0Z" transform="translate(36.74 -36.45) rotate(7.5)"/><rect class="cls-5" x="262.16" y="232.23" width="77.08" height="8.86" rx="4.09" ry="4.09" transform="translate(33.47 -37.24) rotate(7.5)"/><line class="cls-6" x1="260.14" y1="257.23" x2="334.56" y2="267.04"/><line class="cls-6" x1="258.59" y1="268.95" x2="333.02" y2="278.75"/><line class="cls-6" x1="257.05" y1="280.66" x2="331.47" y2="290.46"/><line class="cls-6" x1="255.76" y1="292.4" x2="330.18" y2="302.2"/><path class="cls-7" d="M127.18,149H271.29a14.18,14.18,0,0,1,14.18,14.18V336.82A14.18,14.18,0,0,1,271.29,351H127.18a0,0,0,0,1,0,0V149a0,0,0,0,1,0,0Z" transform="translate(-33.13 31.53) rotate(-8.09)"/><rect class="cls-5" x="165.19" y="219.99" width="77.08" height="8.86" rx="4.09" ry="4.09" transform="matrix(0.99, -0.14, 0.14, 0.99, -29.56, 30.91)"/><line class="cls-6" x1="170.19" y1="255.14" x2="244.5" y2="244.57"/><line class="cls-6" x1="171.85" y1="266.83" x2="246.17" y2="256.27"/><line class="cls-6" x1="173.51" y1="278.53" x2="247.83" y2="267.96"/><line class="cls-6" x1="175.42" y1="290.19" x2="249.74" y2="279.62"/><path class="cls-5" d="M141.74,375.48,273,413.78l48.2-165.27ZM255.09,381l-53.44-15.59,73.06-51.68Z"/><g class="cls-8"><rect class="cls-7" x="299.74" y="282.92" width="22.71" height="2.29" rx="1.1" ry="1.1" transform="translate(91.56 -75.48) rotate(16.19)"/><rect class="cls-7" x="298" y="288.92" width="22.71" height="2.29" rx="1.1" ry="1.1" transform="translate(93.16 -74.76) rotate(16.19)"/><rect class="cls-7" x="296.26" y="294.91" width="22.71" height="2.29" rx="1.1" ry="1.1" transform="translate(94.76 -74.04) rotate(16.19)"/><rect class="cls-7" x="294.51" y="300.91" width="22.71" height="2.29" rx="1.1" ry="1.1" transform="translate(96.37 -73.31) rotate(16.19)"/><rect class="cls-7" x="292.77" y="306.91" width="22.71" height="2.29" rx="1.1" ry="1.1" transform="translate(97.97 -72.59) rotate(16.19)"/><rect class="cls-7" x="291.03" y="312.9" width="22.71" height="2.29" rx="1.1" ry="1.1" transform="matrix(0.96, 0.28, -0.28, 0.96, 99.57, -71.87)"/><rect class="cls-7" x="289.29" y="318.9" width="22.71" height="2.29" rx="1.1" ry="1.1" transform="translate(101.18 -71.14) rotate(16.19)"/><rect class="cls-7" x="287.55" y="324.89" width="22.71" height="2.29" rx="1.1" ry="1.1" transform="translate(102.78 -70.42) rotate(16.19)"/><rect class="cls-7" x="285.81" y="330.89" width="22.71" height="2.29" rx="1.1" ry="1.1" transform="matrix(0.96, 0.28, -0.28, 0.96, 104.38, -69.7)"/><rect class="cls-7" x="284.07" y="336.89" width="22.71" height="2.29" rx="1.1" ry="1.1" transform="translate(105.99 -68.97) rotate(16.19)"/><rect class="cls-7" x="282.33" y="342.88" width="22.71" height="2.29" rx="1.1" ry="1.1" transform="translate(107.59 -68.25) rotate(16.19)"/><rect class="cls-7" x="280.58" y="348.88" width="22.71" height="2.29" rx="1.1" ry="1.1" transform="translate(109.19 -67.53) rotate(16.19)"/><rect class="cls-7" x="278.84" y="354.88" width="22.71" height="2.29" rx="1.1" ry="1.1" transform="translate(110.8 -66.8) rotate(16.19)"/><rect class="cls-7" x="277.1" y="360.87" width="22.71" height="2.29" rx="1.1" ry="1.1" transform="translate(112.4 -66.08) rotate(16.19)"/><rect class="cls-7" x="275.36" y="366.87" width="22.71" height="2.29" rx="1.1" ry="1.1" transform="translate(114 -65.36) rotate(16.19)"/><rect class="cls-7" x="273.62" y="372.87" width="22.71" height="2.29" rx="1.1" ry="1.1" transform="translate(115.6 -64.63) rotate(16.19)"/><rect class="cls-7" x="271.88" y="378.86" width="22.71" height="2.29" rx="1.1" ry="1.1" transform="matrix(0.96, 0.28, -0.28, 0.96, 117.21, -63.91)"/><rect class="cls-7" x="270.14" y="384.86" width="22.71" height="2.29" rx="1.1" ry="1.1" transform="matrix(0.96, 0.28, -0.28, 0.96, 118.81, -63.19)"/><rect class="cls-7" x="268.39" y="390.86" width="22.71" height="2.29" rx="1.1" ry="1.1" transform="translate(120.41 -62.46) rotate(16.19)"/><rect class="cls-7" x="266.65" y="396.85" width="22.71" height="2.29" rx="1.1" ry="1.1" transform="translate(122.02 -61.74) rotate(16.19)"/></g></svg>